<svg id="SvgjsSvg1001"
width="288"
height="288"
xmlns="http://www.w3.org/2000/svg"
version="1.1" xmlns:xlink="http://www.w3.org/1999/xlink" xmlns:svgjs="http://svgjs.com/svgjs"><defs id="SvgjsDefs1002"></defs><g id="SvgjsG1008" transform="matrix(0.9167,0,0,0.9167,11.995200000000011,11.995200000000011)"><!--?xml version="1.0"?--><svg xmlns="http://www.w3.org/2000/svg" height="288" viewBox="0 0 48 48" width="288"><path d="M0 0h48v48h-48z" fill="none"></path><path d="M20.17 31.17l2.83 2.83 10-10-10-10-2.83 2.83 5.17 5.17h-19.34v4h19.34l-5.17 5.17zm17.83-25.17h-28c-2.21 0-4 1.79-4 4v8h4v-8h28v28h-28v-8h-4v8c0 2.21 1.79 4 4 4h28c2.21 0 4-1.79 4-4v-28c0-2.21-1.79-4-4-4z" fill="#cecccc" class="color000 svgShape"></path>
	
	
	<metadata>
		<rdf:rdf xmlns:rdf="http://www.w3.org/1999/02/22-rdf-syntax-ns#" xmlns:rdfs="http://www.w3.org/2000/01/rdf-schema#" xmlns:dc="http://purl.org/dc/elements/1.1/">
			<rdf:description about="https://iconscout.com/legal#licenses" dc:title="Exit, App, Export, Enter" dc:description="Exit, App, Export, Enter" dc:publisher="Iconscout" dc:date="2016-12-14" dc:format="image/svg+xml" dc:language="en">
				<dc:creator>
					<rdf:bag>
						<rdf:li>Google Inc.</rdf:li>
					</rdf:bag>
				</dc:creator>
			</rdf:description>
		</rdf:rdf>
    </metadata></svg>
</g></svg>