<svg xmlns="http://www.w3.org/2000/svg" x="0px" y="0px"
width="26" height="26"
viewBox="0 0 192 192"
style=" fill:#000000;"><g fill="none" fill-rule="nonzero" stroke="none" stroke-width="1" stroke-linecap="butt" stroke-linejoin="miter" stroke-miterlimit="10" stroke-dasharray="" stroke-dashoffset="0" font-family="none" font-weight="none" font-size="none" text-anchor="none" style="mix-blend-mode: normal"><path d="M0,192v-192h192v192z" fill="none"></path><g fill="#ecf0f1"><g id="surface1"><path d="M149.76,23.04c-6.87,0 -13.74,2.58 -18.96,7.8l-76.2,76.32c-0.27,0.21 -0.51,0.45 -0.72,0.72c-0.09,0.075 -0.165,0.15 -0.24,0.24c-0.18,0.15 -0.33,0.3 -0.48,0.48c0,0.045 0,0.075 0,0.12c-6.675,7.5 -6.465,19.095 0.72,26.28c7.455,7.455 19.665,7.455 27.12,0l57.96,-58.08c1.14,-1.095 1.485,-2.79 0.87,-4.245c-0.6,-1.455 -2.055,-2.385 -3.63,-2.355c-1.005,0.045 -1.95,0.465 -2.64,1.2l-57.96,57.96c-4.515,4.515 -11.805,4.515 -16.32,0c-4.365,-4.365 -4.44,-11.19 -0.36,-15.72c0.135,-0.15 0.255,-0.315 0.36,-0.48c0.09,-0.075 0.165,-0.15 0.24,-0.24l0.36,-0.24c0,-0.045 0,-0.075 0,-0.12l76.44,-76.32c7.5,-7.5 19.485,-7.515 27,0c7.5,7.5 7.5,19.5 0,27l-94.56,94.56c-10.5,10.5 -27.42,10.5 -37.92,0c-10.5,-10.5 -10.5,-27.42 0,-37.92l75.6,-75.6c1.14,-0.93 1.665,-2.415 1.335,-3.855c-0.33,-1.425 -1.455,-2.55 -2.88,-2.88c-1.44,-0.33 -2.925,0.195 -3.855,1.335l-75.6,75.6c-13.425,13.425 -13.44,35.415 0,48.84c13.44,13.425 35.295,13.425 48.72,0l94.68,-94.56c10.44,-10.44 10.44,-27.6 0,-38.04c-5.22,-5.22 -12.21,-7.8 -19.08,-7.8z"></path></g></g></g></svg>