<svg xmlns="http://www.w3.org/2000/svg" width="24" height="24" viewBox="0 0 24 24">
    <defs>
        <style>
            .cls-1{fill:#9061cd}
        </style>
    </defs>
    <path id="icon-salesforce" d="M259.947 366.846a12 12 0 1 0 12 12 12 12 0 0 0-12-12zm4.85 15.41c-.13 0-.257-.006-.383-.018a3.4 3.4 0 0 1-3.82 1.446 3.4 3.4 0 0 1-5.851-.244 3.507 3.507 0 0 1-.4.024 3.4 3.4 0 0 1-2.084-6.079 3.752 3.752 0 0 1 6.34-3.7 3.372 3.372 0 0 1 4.922.473 4.15 4.15 0 1 1 1.275 8.1z" class="cls-1" transform="translate(-247.947 -366.846)"/>
</svg>
