<?xml version="1.0" encoding="utf-8"?>
<!-- Generator: Adobe Illustrator 22.0.1, SVG Export Plug-In . SVG Version: 6.00 Build 0)  -->
<svg version="1.1" id="Layer_1" xmlns="http://www.w3.org/2000/svg" xmlns:xlink="http://www.w3.org/1999/xlink" x="0px" y="0px"
	 viewBox="0 0 1000 1000" style="enable-background:new 0 0 1000 1000;" xml:space="preserve">
<style type="text/css">
	.st0{fill:#2CD5C4;}
</style>
<g>
	<path class="st0" d="M46.1,443.3c-0.6-1.6-1.2-3.3-1.7-4.9C45,440.1,45.5,441.7,46.1,443.3z"/>
	<g>
		<path class="st0" d="M887.5,160.6c-104.4-100.3-270.4-99-373.2,3.8L376.1,302.6L273.9,404.8c0,0-6.7,6.6-13.3,12.4
			c-3,2.7-9.9,8.4-18.3,14.5c-10,7.4-22.1,15.4-32.2,19.5c-17.8,7.3-37.2,11-58,11c-46.1,0-87.8-20.8-115.9-53.1
			c2.1,9.3,4.6,18.5,7.7,27.4c0.2,0.6,0.4,1.2,0.6,1.8c0.5,1.6,1.1,3.3,1.7,4.9c13.2,37,34.6,71.8,64.1,101.3
			c74.4,74.4,195,74.4,269.4,0l254.5-254.5c36.3-36.3,95.2-36.3,131.5,0c36.3,36.3,36.3,95.2,0,131.5L422.4,764.9
			c-17.4,17.4-22.1,48.1-22.1,58.8c0,47.5,38.5,86.1,86.1,86.1c37.9,0,66.7-30,90.7-53.9c24-24,311.2-311.2,311.2-311.2
			C994.4,438.5,995.7,264.6,887.5,160.6z"/>
	</g>
	<path class="st0" d="M318.2,87.1C199.3,76.6,85.2,150.3,45,262.6c-10.5,29.2-15.8,60.5-15.4,91.6c26.5,40.9,71.4,67.8,122.5,67.8
		c23.5,0,45.6-5.7,65.3-15.8c-23.3-29-27.3-70.4-9.1-103.4c18.9-34.3,55.5-50.5,93.7-47.2c25.3,2.2,50-7.2,67.9-25.1l0,0
		C420.4,179.9,389.1,93.4,318.2,87.1z"/>
</g>
</svg>
